<?xml version="1.0" encoding="UTF-8" standalone="no"?>
<!DOCTYPE svg PUBLIC "-//W3C//DTD SVG 1.1//EN"
 "http://www.w3.org/Graphics/SVG/1.1/DTD/svg11.dtd">
<!-- Generated by graphviz version 9.0.0 (20230911.1827)
 -->
<!-- Title: iop/system/iomanx/src/iomanX.c Pages: 1 -->
<svg width="494pt" height="315pt"
 viewBox="0.00 0.00 493.50 314.75" xmlns="http://www.w3.org/2000/svg" xmlns:xlink="http://www.w3.org/1999/xlink">
<g id="graph0" class="graph" transform="scale(1 1) rotate(0) translate(4 310.75)">
<title>iop/system/iomanx/src/iomanX.c</title>
<!-- Node1 -->
<g id="Node000001" class="node">
<title>Node1</title>
<g id="a_Node000001"><a xlink:title=" ">
<polygon fill="#999999" stroke="#666666" points="307.12,-306.75 193.62,-306.75 193.62,-276.25 307.12,-276.25 307.12,-306.75"/>
<text text-anchor="start" x="201.62" y="-293.25" font-family="Helvetica,sans-Serif" font-size="10.00">iop/system/iomanx/src</text>
<text text-anchor="middle" x="250.38" y="-282" font-family="Helvetica,sans-Serif" font-size="10.00">/iomanX.c</text>
</a>
</g>
</g>
<!-- Node2 -->
<g id="Node000002" class="node">
<title>Node2</title>
<g id="a_Node000002"><a xlink:href="string_8h_source.html" target="_top" xlink:title=" ">
<polygon fill="white" stroke="#666666" points="120.12,-240.25 72.62,-240.25 72.62,-221 120.12,-221 120.12,-240.25"/>
<text text-anchor="middle" x="96.38" y="-226.75" font-family="Helvetica,sans-Serif" font-size="10.00">string.h</text>
</a>
</g>
</g>
<!-- Node1&#45;&gt;Node2 -->
<g id="edge1_Node000001_Node000002" class="edge">
<title>Node1&#45;&gt;Node2</title>
<g id="a_edge1_Node000001_Node000002"><a xlink:title=" ">
<path fill="none" stroke="#63b8ff" d="M211.91,-275.8C186.88,-266.23 154.53,-253.86 130.43,-244.64"/>
<polygon fill="#63b8ff" stroke="#63b8ff" points="132,-241.5 121.41,-241.19 129.5,-248.03 132,-241.5"/>
</a>
</g>
</g>
<!-- Node8 -->
<g id="Node000008" class="node">
<title>Node8</title>
<g id="a_Node000008"><a xlink:title=" ">
<polygon fill="#e0e0e0" stroke="#999999" points="278.62,-129.75 228.12,-129.75 228.12,-110.5 278.62,-110.5 278.62,-129.75"/>
<text text-anchor="middle" x="253.38" y="-116.25" font-family="Helvetica,sans-Serif" font-size="10.00">stdarg.h</text>
</a>
</g>
</g>
<!-- Node1&#45;&gt;Node8 -->
<g id="edge28_Node000001_Node000008" class="edge">
<title>Node1&#45;&gt;Node8</title>
<g id="a_edge28_Node000001_Node000008"><a xlink:title=" ">
<path fill="none" stroke="#63b8ff" d="M255.68,-275.87C263.44,-252.54 276.28,-205.46 269.38,-165.75 267.9,-157.24 264.94,-148.21 261.97,-140.52"/>
<polygon fill="#63b8ff" stroke="#63b8ff" points="265.29,-139.39 258.22,-131.5 258.83,-142.08 265.29,-139.39"/>
</a>
</g>
</g>
<!-- Node11 -->
<g id="Node000011" class="node">
<title>Node11</title>
<g id="a_Node000011"><a xlink:title=" ">
<polygon fill="#e0e0e0" stroke="#999999" points="222.75,-240.25 176,-240.25 176,-221 222.75,-221 222.75,-240.25"/>
<text text-anchor="middle" x="199.38" y="-226.75" font-family="Helvetica,sans-Serif" font-size="10.00">types.h</text>
</a>
</g>
</g>
<!-- Node1&#45;&gt;Node11 -->
<g id="edge12_Node000001_Node000011" class="edge">
<title>Node1&#45;&gt;Node11</title>
<g id="a_edge12_Node000001_Node000011"><a xlink:title=" ">
<path fill="none" stroke="#63b8ff" d="M237.77,-275.95C230.75,-267.84 221.96,-257.7 214.57,-249.16"/>
<polygon fill="#63b8ff" stroke="#63b8ff" points="217.42,-247.11 208.23,-241.85 212.13,-251.7 217.42,-247.11"/>
</a>
</g>
</g>
<!-- Node12 -->
<g id="Node000012" class="node">
<title>Node12</title>
<g id="a_Node000012"><a xlink:href="intrman_8h.html" target="_top" xlink:title=" ">
<polygon fill="white" stroke="#666666" points="197.25,-185 141.5,-185 141.5,-165.75 197.25,-165.75 197.25,-185"/>
<text text-anchor="middle" x="169.38" y="-171.5" font-family="Helvetica,sans-Serif" font-size="10.00">intrman.h</text>
</a>
</g>
</g>
<!-- Node1&#45;&gt;Node12 -->
<g id="edge13_Node000001_Node000012" class="edge">
<title>Node1&#45;&gt;Node12</title>
<g id="a_edge13_Node000001_Node000012"><a xlink:title=" ">
<path fill="none" stroke="#63b8ff" d="M209.06,-275.86C193.08,-267.94 176.47,-256.39 167.38,-240.25 159.87,-226.93 161.02,-209.44 163.69,-196.13"/>
<polygon fill="#63b8ff" stroke="#63b8ff" points="167,-197.34 166,-186.79 160.2,-195.66 167,-197.34"/>
</a>
</g>
</g>
<!-- Node13 -->
<g id="Node000013" class="node">
<title>Node13</title>
<g id="a_Node000013"><a xlink:href="stdio_8h.html" target="_top" xlink:title=" ">
<polygon fill="white" stroke="#666666" points="260.62,-185 216.12,-185 216.12,-165.75 260.62,-165.75 260.62,-185"/>
<text text-anchor="middle" x="238.38" y="-171.5" font-family="Helvetica,sans-Serif" font-size="10.00">stdio.h</text>
</a>
</g>
</g>
<!-- Node1&#45;&gt;Node13 -->
<g id="edge16_Node000001_Node000013" class="edge">
<title>Node1&#45;&gt;Node13</title>
<g id="a_edge16_Node000001_Node000013"><a xlink:title=" ">
<path fill="none" stroke="#63b8ff" d="M248.86,-276.05C246.75,-256 242.92,-219.65 240.52,-196.82"/>
<polygon fill="#63b8ff" stroke="#63b8ff" points="244.01,-196.53 239.49,-186.95 237.05,-197.26 244.01,-196.53"/>
</a>
</g>
</g>
<!-- Node14 -->
<g id="Node000014" class="node">
<title>Node14</title>
<g id="a_Node000014"><a xlink:href="ioman_x_8h.html" target="_top" xlink:title=" ">
<polygon fill="white" stroke="#666666" points="372.62,-185 316.12,-185 316.12,-165.75 372.62,-165.75 372.62,-185"/>
<text text-anchor="middle" x="344.38" y="-171.5" font-family="Helvetica,sans-Serif" font-size="10.00">iomanX.h</text>
</a>
</g>
</g>
<!-- Node1&#45;&gt;Node14 -->
<g id="edge19_Node000001_Node000014" class="edge">
<title>Node1&#45;&gt;Node14</title>
<g id="a_edge19_Node000001_Node000014"><a xlink:title=" ">
<path fill="none" stroke="#63b8ff" d="M267.23,-275.97C277.9,-266.36 291.64,-253.2 302.38,-240.25 314.15,-226.04 325.53,-208.42 333.46,-195.29"/>
<polygon fill="#63b8ff" stroke="#63b8ff" points="336.41,-197.18 338.48,-186.79 330.38,-193.62 336.41,-197.18"/>
</a>
</g>
</g>
<!-- Node20 -->
<g id="Node000020" class="node">
<title>Node20</title>
<g id="a_Node000020"><a xlink:href="errno_8h.html" target="_top" xlink:title=" ">
<polygon fill="white" stroke="#666666" points="400,-240.25 354.75,-240.25 354.75,-221 400,-221 400,-240.25"/>
<text text-anchor="middle" x="377.38" y="-226.75" font-family="Helvetica,sans-Serif" font-size="10.00">errno.h</text>
</a>
</g>
</g>
<!-- Node1&#45;&gt;Node20 -->
<g id="edge27_Node000001_Node000020" class="edge">
<title>Node1&#45;&gt;Node20</title>
<g id="a_edge27_Node000001_Node000020"><a xlink:title=" ">
<path fill="none" stroke="#63b8ff" d="M282.09,-275.8C302.18,-266.48 327.98,-254.52 347.67,-245.4"/>
<polygon fill="#63b8ff" stroke="#63b8ff" points="348.92,-248.67 356.53,-241.29 345.98,-242.32 348.92,-248.67"/>
</a>
</g>
</g>
<!-- Node3 -->
<g id="Node000003" class="node">
<title>Node3</title>
<g id="a_Node000003"><a xlink:href="sysclib_8h.html" target="_top" xlink:title=" ">
<polygon fill="white" stroke="#666666" points="123.12,-185 69.62,-185 69.62,-165.75 123.12,-165.75 123.12,-185"/>
<text text-anchor="middle" x="96.38" y="-171.5" font-family="Helvetica,sans-Serif" font-size="10.00">sysclib.h</text>
</a>
</g>
</g>
<!-- Node2&#45;&gt;Node3 -->
<g id="edge2_Node000002_Node000003" class="edge">
<title>Node2&#45;&gt;Node3</title>
<g id="a_edge2_Node000002_Node000003"><a xlink:title=" ">
<path fill="none" stroke="#63b8ff" d="M96.38,-220.83C96.38,-214.32 96.38,-205.17 96.38,-196.87"/>
<polygon fill="#63b8ff" stroke="#63b8ff" points="99.88,-196.87 96.38,-186.87 92.88,-196.87 99.88,-196.87"/>
</a>
</g>
</g>
<!-- Node4 -->
<g id="Node000004" class="node">
<title>Node4</title>
<g id="a_Node000004"><a xlink:href="iop_2kernel_2include_2types_8h_source.html" target="_top" xlink:title=" ">
<polygon fill="white" stroke="#666666" points="178.75,-74.5 132,-74.5 132,-55.25 178.75,-55.25 178.75,-74.5"/>
<text text-anchor="middle" x="155.38" y="-61" font-family="Helvetica,sans-Serif" font-size="10.00">types.h</text>
</a>
</g>
</g>
<!-- Node3&#45;&gt;Node4 -->
<g id="edge3_Node000003_Node000004" class="edge">
<title>Node3&#45;&gt;Node4</title>
<g id="a_edge3_Node000003_Node000004"><a xlink:title=" ">
<path fill="none" stroke="#63b8ff" d="M100.72,-165.62C106.9,-153.25 118.68,-129.97 129.38,-110.5 134.12,-101.85 139.59,-92.4 144.28,-84.43"/>
<polygon fill="#63b8ff" stroke="#63b8ff" points="147.2,-86.38 149.29,-75.99 141.18,-82.81 147.2,-86.38"/>
</a>
</g>
</g>
<!-- Node7 -->
<g id="Node000007" class="node">
<title>Node7</title>
<g id="a_Node000007"><a xlink:href="irx_8h.html" target="_top" xlink:title=" ">
<polygon fill="white" stroke="#666666" points="172,-129.75 138.75,-129.75 138.75,-110.5 172,-110.5 172,-129.75"/>
<text text-anchor="middle" x="155.38" y="-116.25" font-family="Helvetica,sans-Serif" font-size="10.00">irx.h</text>
</a>
</g>
</g>
<!-- Node3&#45;&gt;Node7 -->
<g id="edge6_Node000003_Node000007" class="edge">
<title>Node3&#45;&gt;Node7</title>
<g id="a_edge6_Node000003_Node000007"><a xlink:title=" ">
<path fill="none" stroke="#63b8ff" d="M106.38,-165.34C114.74,-157.8 126.87,-146.85 136.98,-137.73"/>
<polygon fill="#63b8ff" stroke="#63b8ff" points="139.31,-140.34 144.39,-131.04 134.62,-135.14 139.31,-140.34"/>
</a>
</g>
</g>
<!-- Node3&#45;&gt;Node8 -->
<g id="edge8_Node000003_Node000008" class="edge">
<title>Node3&#45;&gt;Node8</title>
<g id="a_edge8_Node000003_Node000008"><a xlink:title=" ">
<path fill="none" stroke="#63b8ff" d="M123.01,-165.34C148.8,-156.59 188.13,-143.26 216.84,-133.52"/>
<polygon fill="#63b8ff" stroke="#63b8ff" points="217.88,-136.86 226.22,-130.33 215.63,-130.23 217.88,-136.86"/>
</a>
</g>
</g>
<!-- Node9 -->
<g id="Node000009" class="node">
<title>Node9</title>
<g id="a_Node000009"><a xlink:href="setjmp_8h.html" target="_top" xlink:title=" ">
<polygon fill="white" stroke="#666666" points="52.75,-74.5 0,-74.5 0,-55.25 52.75,-55.25 52.75,-74.5"/>
<text text-anchor="middle" x="26.38" y="-61" font-family="Helvetica,sans-Serif" font-size="10.00">setjmp.h</text>
</a>
</g>
</g>
<!-- Node3&#45;&gt;Node9 -->
<g id="edge9_Node000003_Node000009" class="edge">
<title>Node3&#45;&gt;Node9</title>
<g id="a_edge9_Node000003_Node000009"><a xlink:title=" ">
<path fill="none" stroke="#63b8ff" d="M71.31,-165.34C55.67,-158.25 36.78,-146.72 27.38,-129.75 20.04,-116.52 20.24,-99.25 22.02,-86.01"/>
<polygon fill="#63b8ff" stroke="#63b8ff" points="25.45,-86.75 23.76,-76.29 18.55,-85.52 25.45,-86.75"/>
</a>
</g>
</g>
<!-- Node10 -->
<g id="Node000010" class="node">
<title>Node10</title>
<g id="a_Node000010"><a xlink:href="ctype_8h.html" target="_top" xlink:title=" ">
<polygon fill="white" stroke="#666666" points="82.75,-129.75 36,-129.75 36,-110.5 82.75,-110.5 82.75,-129.75"/>
<text text-anchor="middle" x="59.38" y="-116.25" font-family="Helvetica,sans-Serif" font-size="10.00">ctype.h</text>
</a>
</g>
</g>
<!-- Node3&#45;&gt;Node10 -->
<g id="edge11_Node000003_Node000010" class="edge">
<title>Node3&#45;&gt;Node10</title>
<g id="a_edge11_Node000003_Node000010"><a xlink:title=" ">
<path fill="none" stroke="#63b8ff" d="M90.27,-165.58C85.31,-158.46 78.17,-148.18 72,-139.3"/>
<polygon fill="#63b8ff" stroke="#63b8ff" points="75.06,-137.57 66.48,-131.35 69.31,-141.56 75.06,-137.57"/>
</a>
</g>
</g>
<!-- Node5 -->
<g id="Node000005" class="node">
<title>Node5</title>
<g id="a_Node000005"><a xlink:title=" ">
<polygon fill="#e0e0e0" stroke="#999999" points="180.62,-19.25 130.12,-19.25 130.12,0 180.62,0 180.62,-19.25"/>
<text text-anchor="middle" x="155.38" y="-5.75" font-family="Helvetica,sans-Serif" font-size="10.00">stddef.h</text>
</a>
</g>
</g>
<!-- Node4&#45;&gt;Node5 -->
<g id="edge4_Node000004_Node000005" class="edge">
<title>Node4&#45;&gt;Node5</title>
<g id="a_edge4_Node000004_Node000005"><a xlink:title=" ">
<path fill="none" stroke="#63b8ff" d="M155.38,-55.08C155.38,-48.57 155.38,-39.42 155.38,-31.12"/>
<polygon fill="#63b8ff" stroke="#63b8ff" points="158.88,-31.12 155.38,-21.12 151.88,-31.12 158.88,-31.12"/>
</a>
</g>
</g>
<!-- Node6 -->
<g id="Node000006" class="node">
<title>Node6</title>
<g id="a_Node000006"><a xlink:href="tamtypes_8h.html" target="_top" xlink:title=" ">
<polygon fill="white" stroke="#666666" points="94,-19.25 30.75,-19.25 30.75,0 94,0 94,-19.25"/>
<text text-anchor="middle" x="62.38" y="-5.75" font-family="Helvetica,sans-Serif" font-size="10.00">tamtypes.h</text>
</a>
</g>
</g>
<!-- Node4&#45;&gt;Node6 -->
<g id="edge5_Node000004_Node000006" class="edge">
<title>Node4&#45;&gt;Node6</title>
<g id="a_edge5_Node000004_Node000006"><a xlink:title=" ">
<path fill="none" stroke="#63b8ff" d="M139.6,-54.84C125.44,-46.73 104.39,-34.68 87.85,-25.21"/>
<polygon fill="#63b8ff" stroke="#63b8ff" points="89.96,-22.39 79.54,-20.45 86.48,-28.46 89.96,-22.39"/>
</a>
</g>
</g>
<!-- Node7&#45;&gt;Node4 -->
<g id="edge7_Node000007_Node000004" class="edge">
<title>Node7&#45;&gt;Node4</title>
<g id="a_edge7_Node000007_Node000004"><a xlink:title=" ">
<path fill="none" stroke="#63b8ff" d="M155.38,-110.33C155.38,-103.82 155.38,-94.67 155.38,-86.37"/>
<polygon fill="#63b8ff" stroke="#63b8ff" points="158.88,-86.37 155.38,-76.37 151.88,-86.37 158.88,-86.37"/>
</a>
</g>
</g>
<!-- Node9&#45;&gt;Node6 -->
<g id="edge10_Node000009_Node000006" class="edge">
<title>Node9&#45;&gt;Node6</title>
<g id="a_edge10_Node000009_Node000006"><a xlink:title=" ">
<path fill="none" stroke="#63b8ff" d="M32.32,-55.08C37.09,-48.03 43.94,-37.9 49.9,-29.08"/>
<polygon fill="#63b8ff" stroke="#63b8ff" points="52.75,-31.11 55.45,-20.86 46.95,-27.19 52.75,-31.11"/>
</a>
</g>
</g>
<!-- Node12&#45;&gt;Node4 -->
<g id="edge14_Node000012_Node000004" class="edge">
<title>Node12&#45;&gt;Node4</title>
<g id="a_edge14_Node000012_Node000004"><a xlink:title=" ">
<path fill="none" stroke="#63b8ff" d="M173.5,-165.6C178.76,-153.2 186.61,-129.89 181.38,-110.5 178.87,-101.22 173.9,-91.88 168.97,-84.16"/>
<polygon fill="#63b8ff" stroke="#63b8ff" points="171.93,-82.29 163.37,-76.05 166.17,-86.27 171.93,-82.29"/>
</a>
</g>
</g>
<!-- Node12&#45;&gt;Node7 -->
<g id="edge15_Node000012_Node000007" class="edge">
<title>Node12&#45;&gt;Node7</title>
<g id="a_edge15_Node000012_Node000007"><a xlink:title=" ">
<path fill="none" stroke="#63b8ff" d="M167.06,-165.58C165.31,-158.92 162.83,-149.49 160.61,-141.03"/>
<polygon fill="#63b8ff" stroke="#63b8ff" points="164.05,-140.35 158.12,-131.57 157.28,-142.13 164.05,-140.35"/>
</a>
</g>
</g>
<!-- Node13&#45;&gt;Node7 -->
<g id="edge18_Node000013_Node000007" class="edge">
<title>Node13&#45;&gt;Node7</title>
<g id="a_edge18_Node000013_Node000007"><a xlink:title=" ">
<path fill="none" stroke="#63b8ff" d="M224.3,-165.34C211.89,-157.39 193.58,-145.64 178.95,-136.25"/>
<polygon fill="#63b8ff" stroke="#63b8ff" points="181.1,-133.47 170.8,-131.02 177.32,-139.37 181.1,-133.47"/>
</a>
</g>
</g>
<!-- Node13&#45;&gt;Node8 -->
<g id="edge17_Node000013_Node000008" class="edge">
<title>Node13&#45;&gt;Node8</title>
<g id="a_edge17_Node000013_Node000008"><a xlink:title=" ">
<path fill="none" stroke="#63b8ff" d="M240.85,-165.58C242.73,-158.92 245.38,-149.49 247.77,-141.03"/>
<polygon fill="#63b8ff" stroke="#63b8ff" points="251.09,-142.14 250.43,-131.57 244.35,-140.24 251.09,-142.14"/>
</a>
</g>
</g>
<!-- Node14&#45;&gt;Node4 -->
<g id="edge20_Node000014_Node000004" class="edge">
<title>Node14&#45;&gt;Node4</title>
<g id="a_edge20_Node000014_Node000004"><a xlink:title=" ">
<path fill="none" stroke="#63b8ff" d="M338.8,-165.64C329.65,-151.98 310.19,-125.58 287.38,-110.5 257.53,-90.77 218.12,-78.95 190.16,-72.48"/>
<polygon fill="#63b8ff" stroke="#63b8ff" points="190.93,-69.06 180.41,-70.35 189.43,-75.9 190.93,-69.06"/>
</a>
</g>
</g>
<!-- Node14&#45;&gt;Node8 -->
<g id="edge21_Node000014_Node000008" class="edge">
<title>Node14&#45;&gt;Node8</title>
<g id="a_edge21_Node000014_Node000008"><a xlink:title=" ">
<path fill="none" stroke="#63b8ff" d="M328.94,-165.34C315.21,-157.31 294.88,-145.41 278.76,-135.98"/>
<polygon fill="#63b8ff" stroke="#63b8ff" points="280.59,-133 270.19,-130.97 277.06,-139.04 280.59,-133"/>
</a>
</g>
</g>
<!-- Node15 -->
<g id="Node000015" class="node">
<title>Node15</title>
<g id="a_Node000015"><a xlink:href="io__common_8h.html" target="_top" xlink:title=" ">
<polygon fill="white" stroke="#666666" points="408.25,-129.75 334.5,-129.75 334.5,-110.5 408.25,-110.5 408.25,-129.75"/>
<text text-anchor="middle" x="371.38" y="-116.25" font-family="Helvetica,sans-Serif" font-size="10.00">io_common.h</text>
</a>
</g>
</g>
<!-- Node14&#45;&gt;Node15 -->
<g id="edge22_Node000014_Node000015" class="edge">
<title>Node14&#45;&gt;Node15</title>
<g id="a_edge22_Node000014_Node000015"><a xlink:title=" ">
<path fill="none" stroke="#63b8ff" d="M348.83,-165.58C352.33,-158.69 357.32,-148.84 361.72,-140.16"/>
<polygon fill="#63b8ff" stroke="#63b8ff" points="364.73,-141.96 366.14,-131.46 358.49,-138.8 364.73,-141.96"/>
</a>
</g>
</g>
<!-- Node18 -->
<g id="Node000018" class="node">
<title>Node18</title>
<g id="a_Node000018"><a xlink:href="iox__stat_8h.html" target="_top" xlink:title=" ">
<polygon fill="white" stroke="#666666" points="484,-129.75 426.75,-129.75 426.75,-110.5 484,-110.5 484,-129.75"/>
<text text-anchor="middle" x="455.38" y="-116.25" font-family="Helvetica,sans-Serif" font-size="10.00">iox_stat.h</text>
</a>
</g>
</g>
<!-- Node14&#45;&gt;Node18 -->
<g id="edge25_Node000014_Node000018" class="edge">
<title>Node14&#45;&gt;Node18</title>
<g id="a_edge25_Node000014_Node000018"><a xlink:title=" ">
<path fill="none" stroke="#63b8ff" d="M363.2,-165.34C380.43,-157.08 406.18,-144.73 426.08,-135.18"/>
<polygon fill="#63b8ff" stroke="#63b8ff" points="427.59,-138.34 435.09,-130.86 424.56,-132.03 427.59,-138.34"/>
</a>
</g>
</g>
<!-- Node16 -->
<g id="Node000016" class="node">
<title>Node16</title>
<g id="a_Node000016"><a xlink:href="fcntl_8h_source.html" target="_top" xlink:title=" ">
<polygon fill="white" stroke="#666666" points="404.5,-74.5 344.25,-74.5 344.25,-55.25 404.5,-55.25 404.5,-74.5"/>
<text text-anchor="middle" x="374.38" y="-61" font-family="Helvetica,sans-Serif" font-size="10.00">sys/fcntl.h</text>
</a>
</g>
</g>
<!-- Node15&#45;&gt;Node16 -->
<g id="edge23_Node000015_Node000016" class="edge">
<title>Node15&#45;&gt;Node16</title>
<g id="a_edge23_Node000015_Node000016"><a xlink:title=" ">
<path fill="none" stroke="#63b8ff" d="M371.87,-110.33C372.24,-103.74 372.76,-94.46 373.24,-86.07"/>
<polygon fill="#63b8ff" stroke="#63b8ff" points="376.72,-86.55 373.78,-76.37 369.73,-86.16 376.72,-86.55"/>
</a>
</g>
</g>
<!-- Node17 -->
<g id="Node000017" class="node">
<title>Node17</title>
<g id="a_Node000017"><a xlink:href="unistd_8h_source.html" target="_top" xlink:title=" ">
<polygon fill="white" stroke="#666666" points="326.25,-74.5 258.5,-74.5 258.5,-55.25 326.25,-55.25 326.25,-74.5"/>
<text text-anchor="middle" x="292.38" y="-61" font-family="Helvetica,sans-Serif" font-size="10.00">sys/unistd.h</text>
</a>
</g>
</g>
<!-- Node15&#45;&gt;Node17 -->
<g id="edge24_Node000015_Node000017" class="edge">
<title>Node15&#45;&gt;Node17</title>
<g id="a_edge24_Node000015_Node000017"><a xlink:title=" ">
<path fill="none" stroke="#63b8ff" d="M357.97,-110.09C346.28,-102.21 329.07,-90.61 315.21,-81.27"/>
<polygon fill="#63b8ff" stroke="#63b8ff" points="317.35,-78.49 307.1,-75.8 313.43,-84.29 317.35,-78.49"/>
</a>
</g>
</g>
<!-- Node19 -->
<g id="Node000019" class="node">
<title>Node19</title>
<g id="a_Node000019"><a xlink:href="time_8h.html" target="_top" xlink:title=" ">
<polygon fill="white" stroke="#666666" points="485.5,-74.5 425.25,-74.5 425.25,-55.25 485.5,-55.25 485.5,-74.5"/>
<text text-anchor="middle" x="455.38" y="-61" font-family="Helvetica,sans-Serif" font-size="10.00">sys/time.h</text>
</a>
</g>
</g>
<!-- Node18&#45;&gt;Node19 -->
<g id="edge26_Node000018_Node000019" class="edge">
<title>Node18&#45;&gt;Node19</title>
<g id="a_edge26_Node000018_Node000019"><a xlink:title=" ">
<path fill="none" stroke="#63b8ff" d="M455.38,-110.33C455.38,-103.82 455.38,-94.67 455.38,-86.37"/>
<polygon fill="#63b8ff" stroke="#63b8ff" points="458.88,-86.37 455.38,-76.37 451.88,-86.37 458.88,-86.37"/>
</a>
</g>
</g>
</g>
</svg>
